<svg id="Layer_1" data-name="Layer 1" xmlns="http://www.w3.org/2000/svg" viewBox="0 0 214.97 219.17"><defs><style>.cls-1{fill:#00a1aa;}.cls-2{fill:#cbcbcb;}.cls-3{fill:#fff;}.cls-4{fill:#026666;}.cls-5{fill:#255d7c;}</style></defs><path class="cls-1" d="M12.44,155.45s-32.58-46.93,7.71-90.7S91.87-16.49,148.3,7.5s83,103.49,56.11,126.21-99.22-17.2-118.27,8.8S60.29,193.07,12.44,155.45Z"/><path class="cls-2" d="M65.39,18.52c-.65,9.9-10.67,14.15-3.26,14.64l117.11,7.7s.48-7.38,1-14.79v-.13c.49-7.42-3.56-12.3-11-12.79L63.91,6.23c-7.41-.49,2.17,1.9,1.49,12.17Z"/><path class="cls-3" d="M158.32,12.43,55.8,5.7c-6-.39-13.94,2.52-14.33,8.48l-9,137.58-.59,9,13.71.9,102.52,6.74c6,.39,10.13-2.35,10.52-8.31l9-137.59.62-9.38Z"/><path class="cls-2" d="M136.09,155.93c-.65,9.9,11.37,12.39,3.95,11.91L34.7,160.92c-7.41-.49-15.34-5.21-14.85-12.62v-.13c.49-7.41,9.11-13.26,16.52-12.77l105.34,6.92c7.41.49-4.95,3.23-5.62,13.48Z"/><polygon class="cls-4" points="116.27 219.17 104.28 206.73 90.76 217.49 94.22 164.82 119.73 166.5 116.27 219.17"/><path class="cls-1" d="M126.92,168.69A19.54,19.54,0,1,1,108.7,147.9,19.54,19.54,0,0,1,126.92,168.69Z"/><path class="cls-5" d="M141.16,53,65.24,48c-1.47-.1-2.62-.83-2.52-2.3s1.33-2,2.8-1.95l75.92,5c1.47.1,2.62.83,2.52,2.3S142.63,53.12,141.16,53Z"/><path class="cls-5" d="M140.13,68.61l-75.92-5A2.85,2.85,0,0,1,64.58,58l75.92,5a2.85,2.85,0,0,1-.37,5.67Z"/><path class="cls-5" d="M138.74,89.88l-75.92-5c-1.47-.1-2.62-.83-2.52-2.3s1.33-2,2.8-2l75.92,5c1.47.1,2.62.83,2.52,2.3S140.21,90,138.74,89.88Z"/><path class="cls-5" d="M137.62,106.89l-75.92-5a2.85,2.85,0,0,1,.37-5.67l75.92,5a2.85,2.85,0,0,1-.37,5.67Z"/><path class="cls-5" d="M136.41,125.31l-75.92-5a2.85,2.85,0,0,1,.37-5.67l75.92,5a2.85,2.85,0,0,1-.37,5.67Z"/></svg>