<svg id="Layer_1" data-name="Layer 1" xmlns="http://www.w3.org/2000/svg" viewBox="0 0 241.6 163.89"><defs><style>.cls-1{fill:#00a1aa;}.cls-2{fill:#fff;}.cls-3{fill:#2c5871;}</style></defs><circle class="cls-1" cx="69.94" cy="69.94" r="69.94"/><circle class="cls-1" cx="186.92" cy="97.91" r="54.68"/><path class="cls-2" d="M105.53,63.35a7.69,7.69,0,0,0-4.37-4,7.79,7.79,0,0,0-10,4.61l3.56-9.61a7.8,7.8,0,0,0-.24-6,7.8,7.8,0,0,0-14.39.58l1.63-4.39a7.8,7.8,0,0,0-.24-6,7.69,7.69,0,0,0-4.37-4,7.79,7.79,0,0,0-10,4.61L65.44,43.5a7.8,7.8,0,0,0-.24-6,7.69,7.69,0,0,0-4.37-4,7.79,7.79,0,0,0-10,4.61L42.13,61.53A8.92,8.92,0,0,1,47.39,73l-2,5.29-3.3-16.75A8.88,8.88,0,0,0,30.68,66.8L22.46,89l3.79,41.1-6.09,16.44L62,162l3.9-10.52a15.22,15.22,0,0,1,7.92-8.55,15.17,15.17,0,0,0,7.91-8.52l24.09-65A8,8,0,0,0,105.53,63.35ZM50.8,105.47c7.3,3.3,6.72,17.15,6.72,17.15l-3,1.88Z"/><path class="cls-2" d="M47.39,73l-2,5.29-3.3-16.75A8.93,8.93,0,0,1,47.39,73Z"/><path class="cls-2" d="M57.52,122.62l-3,1.88-3.77-19C58.09,108.77,57.52,122.62,57.52,122.62Z"/><path class="cls-2" d="M47.39,73l-2,5.29-3.3-16.75A8.93,8.93,0,0,1,47.39,73Z"/><path class="cls-2" d="M57.52,122.62l-3,1.88-3.77-19C58.09,108.77,57.52,122.62,57.52,122.62Z"/><path class="cls-3" d="M20.15,148.4a1.91,1.91,0,0,1-1.79-2.57l5.94-16L20.55,89.13a1.86,1.86,0,0,1,.11-.84L28.88,66.1a10.82,10.82,0,1,1,20.3,7.52l-5,13.52h0l0,.07-.09.19c-.14.45-.33,1-.54,1.51-1.35,3.65.44,11.94,7.44,14.54,9,3.35,8.5,18.6,8.47,19.25a1.87,1.87,0,0,1-2,1.82,1.91,1.91,0,0,1-1.83-2c.15-3.64-.64-13.54-6-15.52-9.07-3.36-11.79-13.76-9.69-19.44l.63-1.7s0,0,0,0l.08-.22h0c0-.11.07-.22.11-.34l4.82-13a7,7,0,0,0-13.14-4.88L24.38,89.21l3.75,40.67a1.86,1.86,0,0,1-.11.84l-6.09,16.44A1.87,1.87,0,0,1,20.15,148.4Z"/><path class="cls-3" d="M62,163.89a1.91,1.91,0,0,1-1.79-2.57l3.9-10.53A17,17,0,0,1,73,141.17a13.25,13.25,0,0,0,6.93-7.47l24.08-65a5.89,5.89,0,0,0-11-4.11l-6.1,16.48a1.91,1.91,0,1,1-3.58-1.32l6.1-16.46s0,0,0,0l3.56-9.6a5.89,5.89,0,0,0-3.48-7.57,5.9,5.9,0,0,0-7.58,3.48l-8.13,22a1.91,1.91,0,0,1-3.58-1.32l9.75-26.33a5.9,5.9,0,0,0-3.48-7.58,5.89,5.89,0,0,0-7.57,3.48L59.11,66.08a1.91,1.91,0,0,1-3.58-1.32l8.13-22a5.9,5.9,0,0,0-3.48-7.58,5.89,5.89,0,0,0-7.57,3.48L44.67,60.14a1.91,1.91,0,1,1-3.58-1.32L49,37.39A9.71,9.71,0,0,1,66.6,36a9.71,9.71,0,0,1,17.48,6.47A9.71,9.71,0,0,1,96.5,55l-.89,2.4a9.7,9.7,0,0,1,12,12.64L83.48,135a17,17,0,0,1-8.91,9.62,13.25,13.25,0,0,0-6.93,7.47l-3.9,10.53A1.9,1.9,0,0,1,62,163.89Z"/><path class="cls-2" d="M128.72,69.34l24.09,65a15.17,15.17,0,0,0,7.91,8.52,15.19,15.19,0,0,1,7.92,8.55l3.9,10.52,41.8-15.48L208.25,130,212,88.94l-8.22-22.19a8.88,8.88,0,0,0-11.45-5.27l-3.3,16.75-2-5.29a8.93,8.93,0,0,1,5.26-11.46L183.69,38a7.8,7.8,0,1,0-14.63,5.41l-1.63-4.39a7.8,7.8,0,1,0-14.63,5.41l1.63,4.39a7.8,7.8,0,1,0-14.63,5.41l3.56,9.61A7.8,7.8,0,0,0,129,63.3,8,8,0,0,0,128.72,69.34Zm51.21,55.15-3-1.88s-.57-13.85,6.72-17.15Z"/><path class="cls-2" d="M187.1,73l2,5.29,3.3-16.75A8.93,8.93,0,0,0,187.1,73Z"/><path class="cls-2" d="M177,122.62l2.95,1.88,3.77-19C176.4,108.77,177,122.62,177,122.62Z"/><path class="cls-2" d="M187.1,73l2,5.29,3.3-16.75A8.93,8.93,0,0,0,187.1,73Z"/><path class="cls-2" d="M177,122.62l2.95,1.88,3.77-19C176.4,108.77,177,122.62,177,122.62Z"/><path class="cls-3" d="M214.34,148.4a1.92,1.92,0,0,1-1.79-1.25l-6.09-16.44a1.84,1.84,0,0,1-.11-.84L210.1,89.2,202,67.41a7,7,0,0,0-13.14,4.88l4.82,13c0,.1.07.2.1.3s0,0,0,0h0l.06.15v0l.66,1.78c2.1,5.68-.62,16.08-9.69,19.44-5.34,2-6.13,11.87-6,15.52a1.9,1.9,0,0,1-1.83,2,1.85,1.85,0,0,1-2-1.82c0-.65-.56-15.91,8.47-19.25,7-2.59,8.79-10.88,7.44-14.54-.21-.57-.39-1.07-.54-1.51a1.63,1.63,0,0,1-.09-.19h0l0-.07h0l-5-13.52a10.82,10.82,0,1,1,20.3-7.52l8.22,22.19a1.84,1.84,0,0,1,.11.84l-3.75,40.67,5.94,16a1.9,1.9,0,0,1-1.13,2.45A1.71,1.71,0,0,1,214.34,148.4Z"/><path class="cls-3" d="M172.54,163.89a1.92,1.92,0,0,1-1.79-1.25l-3.9-10.53a13.18,13.18,0,0,0-6.93-7.47A17,17,0,0,1,151,135L126.93,70a9.7,9.7,0,0,1,11.95-12.64L138,55a9.71,9.71,0,0,1,12.42-12.49,9.73,9.73,0,0,1,.87-4.73A9.71,9.71,0,0,1,167.89,36,9.61,9.61,0,0,1,173,31.67a9.72,9.72,0,0,1,12.48,5.73l7.94,21.43a1.91,1.91,0,0,1-3.58,1.32l-7.94-21.43A5.89,5.89,0,0,0,171,38.31a5.83,5.83,0,0,0-.17,4.51L179,64.77a1.91,1.91,0,0,1-3.58,1.32l-9.75-26.33a5.89,5.89,0,0,0-10.88-.41,5.83,5.83,0,0,0-.17,4.51l9.75,26.33a1.91,1.91,0,1,1-3.58,1.32l-8.13-21.94a5.9,5.9,0,0,0-11.06,4.09l3.56,9.6s0,0,0,0l6.1,16.46a1.91,1.91,0,0,1-3.58,1.32l-6.1-16.48a5.89,5.89,0,0,0-11,4.11l24.08,65a13.18,13.18,0,0,0,6.93,7.47,17,17,0,0,1,8.91,9.62l3.9,10.53a1.9,1.9,0,0,1-1.13,2.45A2.51,2.51,0,0,1,172.54,163.89Z"/></svg>