<svg id="Layer_1" data-name="Layer 1" xmlns="http://www.w3.org/2000/svg" viewBox="0 0 200.64 200.66"><defs><style>.cls-1{fill:#255d7c;}.cls-1,.cls-2,.cls-3{fill-rule:evenodd;}.cls-2{fill:#fff;}.cls-3{fill:#00a1aa;}</style></defs><path class="cls-1" d="M100.32,0A100.33,100.33,0,1,1,0,100.33,100.32,100.32,0,0,1,100.32,0Zm0,12.68a87.65,87.65,0,1,1-87.65,87.65,87.65,87.65,0,0,1,87.65-87.65Z"/><path class="cls-2" d="M100.32,25.86a74.47,74.47,0,1,1-74.47,74.47,74.47,74.47,0,0,1,74.47-74.47Z"/><path class="cls-3" d="M100.32,23.19A77.13,77.13,0,1,1,45.77,45.78a76.88,76.88,0,0,1,54.55-22.59ZM68.09,91.3c.1-6.74.1-20,.09-26.65s0-6.67-.62-7.68-1.74-3-2.35-4.23a2.3,2.3,0,0,1,0-2.84,37.85,37.85,0,0,1,3.07-4.43c.89-1.06,1.19-1.06,2.3.21s3,3.82,4.32,5.64,1.93,2.91,1.95,3.68-.58,1.22-1.29,1.81-1.55,1.32-2,1.73-.42.52-.37,6.44.13,17.64-.13,24.6-.86,9.14-2.26,11.61a28.53,28.53,0,0,1-6.13,7.36,19.16,19.16,0,0,1-8.46,4.27C40.93,116,29.07,104,36.93,90.3a21.87,21.87,0,0,1,4.29-5c1-.91,1-.85.82-.11a29.36,29.36,0,0,0-.91,4.2,32.71,32.71,0,0,0-.22,6.77c.85,9.5,11.09,9.73,18.27,7.39a24.85,24.85,0,0,0,5.74-2.74,12.24,12.24,0,0,0,2.46-2.06c.42-.44.61-.66.71-7.4ZM103.15,86c4.29-8.44,6.52-18.73,9.77-27.73.91-2.52,1.17-2.72,1.56-2.63a2.13,2.13,0,0,1,1.34,1.38c1.43,3.28,1.14,22.24,1.49,27.26.44,6.39,1.27,10.69,2.21,13.37,2.56,7.31,13,5.73,19.22,5a19.66,19.66,0,0,0,4.68-.95c.86-.32,1.2-.6,1.42-1.05s.33-1.07-.75-2.1a20.63,20.63,0,0,0-5.5-3.36,13.3,13.3,0,0,0-6.49-1.07,28.82,28.82,0,0,0-6.49,1.49c-1.59.55-2.19.89-2.49,1s-.3-.05.15-1.18a25,25,0,0,1,2.56-4.92,13.48,13.48,0,0,1,4.24-3.87,8.48,8.48,0,0,1,4.76-1.22,12.39,12.39,0,0,1,5.68,1.78c1.92,1.12,3.73,2.79,5.61,4.1a29.9,29.9,0,0,0,5.6,3,27.59,27.59,0,0,0,5.22,1.7,26.33,26.33,0,0,0,5.15.51,31.37,31.37,0,0,1,3.49,0c.67.13.76.53.62,1.87a46.16,46.16,0,0,1-.81,4.89c-.31,1.28-.57,1.58-1.39,1.7a43.73,43.73,0,0,1-4.71,0,73.8,73.8,0,0,0-8.55.27,11.12,11.12,0,0,0-5.09,1.72c-13.46,8.49-31,9.82-33.24-10.07-.4-3.51-.63-7.36-.76-9.74a27.07,27.07,0,0,0-.27-3.65c-.12-.37-.33-.22-.91,1.33s-1.52,4.5-3,7.78c-5.59,12-15.68,20.82-29.65,20.26a26.88,26.88,0,0,1-6.89-1.32c-1.54-.5-1.95-.8-2.09-1s0-.21,1.31-.57,3.82-1,6-1.7c11.83-3.8,21.38-11.13,27.1-22.35ZM80.54,70.61q.17-11.32.16-11.33A30.49,30.49,0,0,1,97.26,87.59a36.87,36.87,0,0,0-16.72-17Zm-17,71.92a6.6,6.6,0,0,1-.9.16,9.54,9.54,0,0,1-1.22.07,3,3,0,0,1-1.9-.46,2.14,2.14,0,0,1-.54-1.68V124.91l.91-.15a7.91,7.91,0,0,1,1.18-.09,3.21,3.21,0,0,1,1.89.44,2,2,0,0,1,.58,1.71v5.11h6.24v-7l.91-.15a8.11,8.11,0,0,1,1.21-.09,3,3,0,0,1,1.86.46,2.13,2.13,0,0,1,.58,1.74v15.66a6.6,6.6,0,0,1-.9.16,9.54,9.54,0,0,1-1.22.07,3,3,0,0,1-1.9-.46,2.14,2.14,0,0,1-.54-1.68v-5.08H63.58v7Zm24.66-3.83H82.55c-.21.7-.41,1.38-.6,2.06s-.34,1.28-.48,1.8a6.36,6.36,0,0,1-.78.2,4.64,4.64,0,0,1-1,.09,3.4,3.4,0,0,1-1.93-.45,1.46,1.46,0,0,1-.65-1.29,2.54,2.54,0,0,1,.12-.78c.08-.25.16-.54.26-.87.14-.52.33-1.17.58-2s.53-1.61.83-2.51.61-1.83.94-2.77.65-1.85,1-2.72.59-1.65.84-2.37.46-1.29.64-1.71a5.27,5.27,0,0,1,1.35-.49,7.63,7.63,0,0,1,1.82-.23,6.83,6.83,0,0,1,2.31.36,1.93,1.93,0,0,1,1.29,1.21c.37,1,.76,2.22,1.19,3.57s.86,2.75,1.29,4.18.86,2.85,1.26,4.24.76,2.64,1.07,3.75a2.2,2.2,0,0,1-.94.61,4.42,4.42,0,0,1-1.5.23,2.74,2.74,0,0,1-1.76-.44,2.53,2.53,0,0,1-.74-1.37l-.69-2.35Zm-2.82-9.94c-.27.87-.61,1.86-1,3s-.77,2.25-1.12,3.41h4.15c-.33-1.22-.66-2.39-1-3.5s-.62-2.08-.86-2.89Zm13.45,13.86a2.4,2.4,0,0,1-1.76-.65,2.36,2.36,0,0,1-.65-1.76V124.9l.91-.15a7.91,7.91,0,0,1,1.18-.09,3.21,3.21,0,0,1,1.89.44,2,2,0,0,1,.58,1.71v12.11h7a3.44,3.44,0,0,1,.33.76,3,3,0,0,1,.16,1,2.13,2.13,0,0,1-.42,1.44,1.44,1.44,0,0,1-1.15.48Zm22.51-3.92h-5.69c-.21.7-.41,1.38-.6,2.06l-.48,1.8a6.36,6.36,0,0,1-.78.2,4.64,4.64,0,0,1-1,.09,3.4,3.4,0,0,1-1.93-.45,1.46,1.46,0,0,1-.65-1.29,2.54,2.54,0,0,1,.12-.78c.08-.25.16-.54.26-.87.14-.52.33-1.17.58-2s.53-1.61.83-2.51.61-1.83.94-2.77.65-1.85,1-2.72.59-1.65.84-2.37.46-1.29.64-1.71a5.27,5.27,0,0,1,1.35-.49,7.63,7.63,0,0,1,1.82-.23,6.83,6.83,0,0,1,2.31.36,1.93,1.93,0,0,1,1.29,1.21c.37,1,.76,2.22,1.19,3.57s.86,2.75,1.29,4.18.86,2.85,1.26,4.24.76,2.64,1.07,3.75a2.2,2.2,0,0,1-.94.61,4.42,4.42,0,0,1-1.5.23,2.74,2.74,0,0,1-1.76-.44,2.53,2.53,0,0,1-.74-1.37l-.69-2.35Zm-2.82-9.94c-.27.87-.61,1.86-1,3s-.77,2.25-1.12,3.41h4.15c-.33-1.22-.66-2.39-1-3.5s-.62-2.08-.86-2.89ZM132,142.62a2.4,2.4,0,0,1-1.76-.65,2.36,2.36,0,0,1-.65-1.76V124.9l.91-.15a7.91,7.91,0,0,1,1.18-.09,3.21,3.21,0,0,1,1.89.44,2,2,0,0,1,.58,1.71v12.11h7a3.44,3.44,0,0,1,.33.76,3,3,0,0,1,.16,1,2.13,2.13,0,0,1-.42,1.44,1.44,1.44,0,0,1-1.15.48Z"/></svg>