<svg id="Layer_1" data-name="Layer 1" xmlns="http://www.w3.org/2000/svg" xmlns:xlink="http://www.w3.org/1999/xlink" viewBox="0 0 273.11 295.25"><defs><style>.cls-1{fill:none;}.cls-2{fill:#1a475b;}.cls-3{fill:#00a1aa;}.cls-4{clip-path:url(#clip-path);}.cls-5{fill:#e4e4e4;}.cls-6{fill:silver;}.cls-7{fill:#255d7c;}.cls-8{fill:#b1b1b1;}.cls-9{isolation:isolate;font-size:34.01px;fill:#fff;font-family:ArialMT, Arial;}</style><clipPath id="clip-path"><path class="cls-1" d="M103.41,61C75,105,86.1,162.77,128.29,190.07s99.46,13.8,127.91-30.16,21.53-109.77-24.88-129C74.68-34.17,131.86,17.07,103.41,61Z"/></clipPath></defs><polygon class="cls-2" points="105.61 210.87 69.92 210.87 69.92 158.53 105.61 144.26 105.61 210.87"/><ellipse class="cls-3" cx="179.8" cy="110.48" rx="94.82" ry="91" transform="translate(-10.64 201.4) rotate(-57.09)"/><g class="cls-4"><path class="cls-2" d="M138.11,43.54S146.11,18.15,177,30c0,0,22.53,17.09,14.55,43.73,0,0,4.39,7.21,13,1.17,0,0,10.34-58-46.84-58.9C157.63,16,141.16,15.34,138.11,43.54Z"/><path class="cls-5" d="M204.13,67.17s20.05-16.79,37.44-4.76c0,0-7.4,1.48-10.2,4.4S219.89,83.43,205.19,82Z"/><path class="cls-6" d="M108.57,210.91s14.48,49.84.85,75.83l8.52-3.83,5.54,6.39s15.76-40,11.5-83.07Z"/><path class="cls-6" d="M51.49,214.74S32.32,271,46.8,290.57l-7.24-4.69-5.11,9.37S14,245.83,30.19,211.75Z"/><path class="cls-7" d="M114.31,57.75s0-28.54,35.36-26.41c0,0,28.54,10.22,29,40,0,0,6.82,6,13.63-3,0,0-8.09-62.62-66.88-45.16C125.38,23.24,108.34,27.93,114.31,57.75Z"/><path class="cls-5" d="M172.05,72s11.5-17.47,29-14.91,60.07,46,59.21,60.49-26.41,27.26-66-1.7c0,0,3.41,56.66-47.71,92,0,0,8.95,57.08,4.26,79.66l-7.24-3.83-9.37,6.82s8.52-56.23-9.8-78.38c0,0-25.13,23.43-86.48,3.41,0,0-31.1,29-23.43,76.25l-7.24-7.67-5.11,9.37s-10.65-33.65,16.19-80.94c0,0,2.13-7.24-5.11-19.6S-6,113.36,57.46,109.1c0,0,20.45-2.13,55.81,9,0,0,21.73,10.22,44.73-26Z"/><path class="cls-5" d="M220.19,121.45l8.95,20.87-14.06-6,4.69,17s-17.47-8.09-19.6-20.87l-1.28,8.52s-13.21-14.48-11.5-30.25Z"/><path class="cls-5" d="M183.55,64.79S158,59.25,148.19,78c0,0,7.24-2.13,11.08-.85s17.89,9.37,30.25,1.28Z"/><ellipse class="cls-7" cx="214.92" cy="93.39" rx="2.19" ry="5.31" transform="translate(-19.18 103.78) rotate(-26.03)"/><polygon class="cls-5" points="209.72 95.05 215.28 92.65 213.19 98.26 209.72 95.05"/><ellipse class="cls-7" cx="231.77" cy="83.68" rx="2.19" ry="5.31" transform="translate(-13.21 110.18) rotate(-26.03)"/><polygon class="cls-5" points="226.44 85.46 232 83.06 229.93 88.67 226.44 85.46"/><path class="cls-7" d="M238.48,108s-6.77-1.57-6.95-.15S233.77,109.79,238.48,108Z"/><path class="cls-7" d="M241.76,106.34s-.7-5.42.85-5.09S244,103.46,241.76,106.34Z"/><path class="cls-7" d="M242.58,120.72a5.24,5.24,0,0,0,4.29-2.24,5.05,5.05,0,0,0,.79-1.9,3.15,3.15,0,0,0,1.12-.13,3.67,3.67,0,0,0,2.45-3.76,7.3,7.3,0,0,0-1.09-3.17,1.64,1.64,0,0,0-2.88,1.56,4.9,4.9,0,0,1,.7,1.78.75.75,0,0,1-.14.48,5.54,5.54,0,0,1-1.07-.79,1.64,1.64,0,0,0-2.5,2,2,2,0,0,1-.07,2,1.89,1.89,0,0,1-3.38-.56,1.64,1.64,0,0,0-3.16.88,5.25,5.25,0,0,0,4.12,3.7A5.79,5.79,0,0,0,242.58,120.72Z"/><path class="cls-8" d="M182.59,72.08s-11.78-6.58-21.48-1.39C161.12,70.7,166,83.51,182.59,72.08Z"/><path class="cls-8" d="M220.35,65.5s6.24-8.31,11.78-5.2C232.13,60.3,235.24,68.62,220.35,65.5Z"/></g><polygon class="cls-7" points="260.25 210.87 69.92 210.87 69.92 158.53 241.22 158.53 260.25 210.87"/><text class="cls-9" transform="translate(93.93 196.69)">RM489!</text></svg>