<svg id="Layer_1" data-name="Layer 1" xmlns="http://www.w3.org/2000/svg" viewBox="0 0 258.65 171.77"><defs><style>.cls-1{fill:#00a1aa;}.cls-2{fill:#1a475b;fill-rule:evenodd;}.cls-3{fill:#255d7c;}.cls-4{fill:#ebeff0;}</style></defs><circle class="cls-1" cx="213.19" cy="67.01" r="45.46"/><path class="cls-2" d="M141.1,83.17,14,99.32,16,115.5,143.16,99.36Zm-106,24.64-5.9.75-.77-6,5.9-.75Zm-15.33,3.48-1.15-9.05,7,3.7Zm23-3.26-3.62.47-1.07-8.4,3.62-.46Zm5.92-.75-3.62.47L44,99.35l3.62-.46Zm29-6.08a4.52,4.52,0,0,1-8.29,1L56.06,104l-.47-3.7L69,98.56a4.52,4.52,0,0,1,8.3-1.06l60.27-7.66.47,3.7ZM10.09,97.92,0,18.7a1.86,1.86,0,0,1,1.59-2.08L132.38,0a1.84,1.84,0,0,1,2,1.62l10.06,79.23h0L147,100.75a1.85,1.85,0,0,1-1.57,2.09L14.67,119.43a1.86,1.86,0,0,1-2.06-1.63ZM65.58,67.09a.9.9,0,0,1-.51-.09,1,1,0,0,1-.6-.8l-4-31.45a1,1,0,0,1,.38-.94,1,1,0,0,1,1-.13L90.48,46a1,1,0,0,1,.22,1.75L66.06,66.88a1.09,1.09,0,0,1-.48.21Z"/><g id="E616_Album_image_photo" data-name="E616, Album, image, photo"><path class="cls-3" d="M110.93,144.51l0,.2,88.62,12.83.37-2.56,8.89-61.39L120.16,80.76ZM223,83l-12.86,88.82L96.66,155.34l12.86-88.82Z"/><path class="cls-4" d="M208.78,93.59l-8.94,61.78-22-38.64-23.31,21.8-5.36-15.89-38.23,21.87,9.23-63.75Z"/><polygon class="cls-1" points="199.49 157.75 110.86 144.91 110.92 144.51 149.16 122.64 154.5 138.53 177.81 116.72 199.85 155.18 199.49 157.75"/><path class="cls-1" d="M164.45,104.7a5,5,0,1,1-5.65,4.22A4.94,4.94,0,0,1,164.45,104.7Z"/></g></svg>