<svg id="Layer_1" data-name="Layer 1" xmlns="http://www.w3.org/2000/svg" viewBox="0 0 198.96 148.86"><defs><style>.cls-1{fill:#2c5871;}.cls-2{fill:#00a1aa;}.cls-3{fill:#fff;}.cls-4{fill:#f1f1f1;}</style></defs><rect class="cls-1" x="72.36" y="127.16" width="9.98" height="12.3"/><path class="cls-2" d="M143,0H11.77A11.76,11.76,0,0,0,0,11.77V115.4a11.77,11.77,0,0,0,11.77,11.76H143a11.77,11.77,0,0,0,11.77-11.76V11.77A11.77,11.77,0,0,0,143,0Z"/><rect class="cls-3" x="10.03" y="9.83" width="134.66" height="107.54"/><rect class="cls-4" x="23.02" y="23.94" width="36.53" height="47.92"/><rect class="cls-4" x="23.02" y="85.73" width="110.44" height="17.02"/><rect class="cls-4" x="70.87" y="23.94" width="62.59" height="17.02"/><rect class="cls-4" x="70.87" y="54.84" width="62.59" height="17.02"/><path class="cls-3" d="M88.4,47.94c.5,44.19,17.65,75.37,52.37,95.25,34.73-19.91,51.86-51.08,52.37-95.25-10-.25-20.64-2.75-27.09-20H115.48C109.05,45.19,98.36,47.69,88.4,47.94Z"/><path class="cls-1" d="M140.78,148.86a7.94,7.94,0,0,1-4-1.06C100.32,127.36,82.58,95.05,82.58,49a8.06,8.06,0,0,1,8-8c8.36,0,13.73-.88,17.91-13a8.06,8.06,0,0,1,7.62-5.42h49.22A8.06,8.06,0,0,1,173,28c4.2,12.12,9.57,13,17.93,13a8.06,8.06,0,0,1,8,8c0,46-17.74,78.33-54.25,98.8A7.85,7.85,0,0,1,140.78,148.86Zm-48.26-98c.47,40.71,16.26,69.43,48.25,87.74,32-18.34,47.78-47,48.25-87.74-9.17-.23-19-2.53-25-18.39H117.48C111.55,48.37,101.7,50.67,92.52,50.9Z"/><path class="cls-2" d="M175.63,56.82c-6.48,0-12.1-.83-15.76-11.36a2.12,2.12,0,0,0-2-1.45H123.66a2.16,2.16,0,0,0-2,1.45C118,56,112.37,56.82,105.93,56.82a2.13,2.13,0,0,0-2.12,2.12c0,30.59,11.74,52.05,35.91,65.6v0a2.14,2.14,0,0,0,1.06.24,2.17,2.17,0,0,0,1-.24v0c24.16-13.55,35.92-35,35.92-65.6A2.14,2.14,0,0,0,175.63,56.82Z"/><path class="cls-2" d="M102.43,139.47H52.29c-1.95,0-3.53,1.2-3.53,2.68v2.68H106v-2.68C106,140.67,104.38,139.47,102.43,139.47Z"/><polygon class="cls-3" points="136.59 91.84 124.47 79.72 118.44 85.75 136.59 103.9 169.96 70.53 163.93 64.5 136.59 91.84"/></svg>